<svg width="28" height="28" viewBox="0 0 28 28" fill="none" xmlns="http://www.w3.org/2000/svg">
<path d="M14.0001 26.9612C21.1583 26.9612 26.9613 21.1583 26.9613 14C26.9613 6.84174 21.1583 1.03882 14.0001 1.03882C6.84176 1.03882 1.03882 6.84174 1.03882 14C1.03882 21.1583 6.84176 26.9612 14.0001 26.9612Z" stroke="#2B2A29" stroke-width="1.5" stroke-miterlimit="22.9256" stroke-linejoin="round"/>
<path fill-rule="evenodd" clip-rule="evenodd" d="M8.53976 15.143L4.60778 13.8708C4.15764 13.7252 4.08551 13.1963 4.73622 12.9457L19.6689 7.19195C20.0649 7.03937 20.6688 7.50459 20.5299 8.16856L18.0223 20.1534C17.8748 20.8582 17.28 21.0331 16.5443 20.4886L12.9437 17.8241L10.399 20.2185L10.6595 16.2613L17.7482 9.82157C17.9201 9.66543 17.3619 9.58645 17.1387 9.72696L8.53967 15.1431L8.53976 15.143Z" stroke="#2B2A29" stroke-width="1.5" stroke-miterlimit="22.9256" stroke-linejoin="round"/>
</svg>
