<svg width="28" height="28" viewBox="0 0 28 28" fill="none" xmlns="http://www.w3.org/2000/svg">
<path fill-rule="evenodd" clip-rule="evenodd" d="M8.2421 6.83257C8.74525 6.76205 9.23346 6.78887 9.70835 6.90175C10.3863 7.94442 10.955 9.30172 11.3959 10.761C11.4907 11.0747 10.5291 12.1627 10.0957 12.8635C11.2182 15.1402 13.1717 16.8483 15.9623 17.9837C16.7614 17.424 17.5742 16.0212 17.9482 15.8727C19.0438 16.203 20.4034 16.8749 21.8106 17.6084C21.9933 18.2408 21.9352 19.1733 21.4645 19.8221C20.2873 21.4448 18.2997 21.6996 16.7754 21.3457C14.0985 20.7241 12.0278 19.2899 10.2235 17.5615C8.08493 15.513 6.43305 13.3986 6.11703 11.0943C5.86307 9.24282 6.85562 7.35056 8.2421 6.83257Z" stroke="#2B2A29" stroke-width="1.5" stroke-miterlimit="22.9256" stroke-linejoin="round"/>
<path fill-rule="evenodd" clip-rule="evenodd" d="M14 1.03885C21.1583 1.03885 26.9613 6.84178 26.9613 14.0001C26.9613 21.1584 21.1583 26.9613 14 26.9613C11.3891 26.9613 8.95881 26.1888 6.92453 24.8605L6.92456 24.8615L2.09833 26.1228L3.34844 21.3871L3.34961 21.3871C1.89319 19.2913 1.03876 16.7457 1.03876 14.0001C1.03876 6.84178 6.84169 1.03882 14 1.03882L14 1.03885Z" stroke="#2B2A29" stroke-width="1.5" stroke-miterlimit="22.9256" stroke-linejoin="round"/>
</svg>
