<svg width="123" height="123" viewBox="0 0 123 123" fill="none" xmlns="http://www.w3.org/2000/svg">
<g clip-path="url(#clip0_82_493)">
<path d="M6.28633 66.0905C6.36828 66.0799 6.42853 66.0912 6.46677 66.1244C6.50517 66.1575 6.54075 66.214 6.57353 66.2936C6.63083 66.4461 6.69403 66.6455 6.76313 66.8919C6.83209 67.1381 6.88806 67.4297 6.93073 67.767C7.03114 68.5613 6.86901 69.2271 6.44403 69.7649C6.01906 70.3025 5.34763 70.6299 4.42976 70.747L3.48929 70.867C2.57127 70.9841 1.83989 70.8355 1.29442 70.4216C0.749102 70.0077 0.426162 69.4036 0.325603 68.6095C0.282929 68.2722 0.264323 67.9759 0.269934 67.72C0.275545 67.4643 0.287063 67.2552 0.30434 67.0932C0.3163 67.008 0.336678 66.9444 0.36562 66.9027C0.394414 66.8609 0.449936 66.8348 0.532037 66.8244L1.52847 66.6973C1.58812 66.6897 1.6373 66.7044 1.67613 66.7413C1.71497 66.778 1.73815 66.8265 1.74568 66.8866L1.74863 66.9091C1.75277 67.1217 1.75941 67.3245 1.76872 67.5173C1.77787 67.7105 1.80297 67.968 1.84373 68.2903C1.85983 68.4176 1.89571 68.5349 1.95093 68.6419C2.00616 68.7493 2.08929 68.8376 2.20063 68.9072C2.31182 68.9767 2.45447 69.0252 2.62841 69.0524C2.80266 69.0797 3.01278 69.0776 3.25908 69.0464L4.19955 68.9263C4.4457 68.895 4.64978 68.8442 4.81161 68.774C4.97345 68.7039 5.09941 68.6212 5.18978 68.5259C5.28015 68.4305 5.33862 68.3243 5.3655 68.2066C5.39223 68.0888 5.39754 67.9664 5.38145 67.839C5.34069 67.5169 5.30082 67.2612 5.26169 67.0719C5.22271 66.8827 5.17856 66.6846 5.12953 66.4778L5.12673 66.4553C5.1192 66.3953 5.12953 66.3426 5.15789 66.2971C5.18638 66.2516 5.23039 66.2251 5.29019 66.2175L6.28662 66.0905H6.28633ZM1.47959 61.9922L6.2627 61.8708C6.34539 61.8686 6.40623 61.8917 6.44521 61.9399C6.48405 61.9879 6.50413 62.0422 6.50561 62.1026L6.54016 63.473C6.54179 63.5332 6.52436 63.5867 6.48789 63.633C6.45127 63.6791 6.39161 63.7033 6.30907 63.7055L1.52581 63.8269L1.56155 65.2425C1.56361 65.3257 1.5425 65.3867 1.49835 65.4256C1.45419 65.4644 1.40207 65.4846 1.34182 65.4862L0.360304 65.5111C0.300205 65.5126 0.245127 65.4951 0.195364 65.4586C0.145454 65.4222 0.119465 65.3624 0.117398 65.2793L5.63567e-06 60.6245C-0.00206165 60.5415 0.0209738 60.4804 0.0688167 60.4414C0.11666 60.4023 0.170852 60.3821 0.230951 60.3806L1.21247 60.3557C1.27272 60.3541 1.32587 60.3716 1.3718 60.4082C1.41802 60.445 1.44209 60.5049 1.44415 60.5877L1.47959 61.9921V61.9922ZM4.20989 53.5463C5.09513 53.6139 5.77866 53.9009 6.26093 54.4073C6.7432 54.9137 6.94816 55.6452 6.87565 56.6017C6.86709 56.7146 6.84893 56.8553 6.82116 57.0236C6.79326 57.192 6.7618 57.358 6.72681 57.522L8.67345 57.6707C8.73341 57.6753 8.7842 57.7018 8.82584 57.7506C8.86734 57.7991 8.88579 57.8535 8.88122 57.9138L8.7777 59.2806C8.77327 59.3408 8.74655 59.3937 8.69797 59.4394C8.64909 59.4849 8.59475 59.5052 8.5348 59.5006L0.646919 58.8986C0.556992 58.8916 0.490986 58.8658 0.449197 58.8211C0.407261 58.7762 0.373298 58.677 0.347162 58.5234C0.289278 58.1932 0.24808 57.8152 0.223716 57.3893C0.199351 56.9632 0.203781 56.5317 0.236858 56.0951C0.306407 55.1763 0.611037 54.4933 1.15045 54.0459C1.68972 53.5984 2.41696 53.4096 3.33218 53.4795L4.21003 53.5465L4.20989 53.5463ZM3.2009 55.3099C2.99831 55.2944 2.81343 55.2955 2.64805 55.3131C2.48075 55.3308 2.3322 55.3724 2.20285 55.4382C2.07527 55.5042 1.9719 55.5986 1.89453 55.7215C1.81745 55.8444 1.77123 56.0077 1.75572 56.2109C1.74155 56.3992 1.73387 56.5748 1.73283 56.7375C1.7318 56.9004 1.7349 57.035 1.74184 57.1416L5.24117 57.4087C5.26642 57.2743 5.29314 57.1211 5.3212 56.949C5.3494 56.7769 5.3686 56.623 5.37894 56.4874C5.39429 56.2841 5.37126 56.1157 5.30968 55.9822C5.24811 55.8487 5.15833 55.7396 5.04212 55.655C4.92399 55.5702 4.78164 55.5064 4.61508 55.4633C4.45043 55.4204 4.26969 55.3915 4.07463 55.3766L3.20061 55.3099H3.2009ZM5.67013 46.5638C6.11002 46.6658 6.49188 46.818 6.8157 47.0211C7.13967 47.2241 7.39779 47.4698 7.58975 47.7604C7.78201 48.0492 7.90664 48.3804 7.96319 48.7559C8.02019 49.1295 7.99701 49.5409 7.89335 49.9915C7.79028 50.4404 7.6311 50.8221 7.41684 51.1327C7.20199 51.4454 6.94505 51.6901 6.6453 51.8689C6.34554 52.0474 6.00547 52.1586 5.62568 52.1985C5.24575 52.2385 4.83598 52.2074 4.39624 52.1055L3.62647 51.9272C3.18673 51.8253 2.80472 51.6729 2.4809 51.4698C2.15692 51.2669 1.89969 51.0174 1.70817 50.725C1.51666 50.4326 1.39247 50.0994 1.33606 49.7239C1.27907 49.3504 1.30254 48.9373 1.40576 48.4885C1.50942 48.0376 1.66816 47.6577 1.88242 47.3471C2.09712 47.0345 2.35361 46.7915 2.65263 46.6165C2.95194 46.4398 3.29113 46.3325 3.67106 46.2925C4.05071 46.2525 4.46062 46.2836 4.90036 46.3854L5.67013 46.5638ZM4.48941 48.1737C3.59502 47.9666 3.07317 48.1887 2.92344 48.8401C2.84946 49.1621 2.90499 49.4326 3.08971 49.6537C3.27474 49.8729 3.59073 50.0353 4.03786 50.1389L4.80763 50.3172C5.2549 50.4208 5.61151 50.4143 5.8773 50.2994C6.14354 50.1829 6.3132 49.9645 6.38718 49.6425C6.53691 48.9912 6.16111 48.5609 5.25948 48.3522L4.48971 48.1739L4.48941 48.1737ZM8.7935 45.9036C8.77416 45.9608 8.74064 46.0073 8.69295 46.043C8.64525 46.0786 8.57851 46.0817 8.49301 46.0528L2.81698 44.1247C2.73872 44.098 2.68881 44.0574 2.66754 44.0022C2.64658 43.9472 2.64554 43.891 2.66489 43.8338L3.05545 42.675C3.0748 42.6176 3.11009 42.5719 3.16133 42.5374C3.21272 42.503 3.27754 42.4992 3.35595 42.5258L6.24218 43.5062C6.29194 43.5231 6.32192 43.5173 6.33151 43.4887C6.33875 43.4672 6.32575 43.4349 6.29268 43.3917L4.03195 40.6265C3.96565 40.5401 3.91958 40.4648 3.89374 40.4C3.86775 40.3355 3.86923 40.2603 3.89817 40.1744L4.29967 38.9832C4.31901 38.926 4.35725 38.8833 4.41455 38.8548C4.47184 38.8264 4.52884 38.8218 4.58584 38.8412L10.2726 40.7728C10.3296 40.7922 10.3734 40.833 10.4041 40.8953C10.4346 40.9575 10.4404 41.0173 10.4212 41.0745L10.0305 42.2333C10.0111 42.2907 9.97112 42.333 9.91043 42.3601C9.84959 42.3872 9.79067 42.3912 9.73368 42.3718L6.9864 41.4386C6.94373 41.4241 6.91744 41.4312 6.90784 41.4598C6.89824 41.4884 6.91006 41.5243 6.94299 41.5674L9.07953 44.2068C9.16945 44.3171 9.217 44.4111 9.22276 44.4888C9.22837 44.5663 9.21553 44.6517 9.18422 44.7446L8.7935 45.9036ZM7.84167 34.7391L12.2016 36.7178C12.2769 36.7519 12.3218 36.7994 12.3359 36.8596C12.3501 36.9199 12.3447 36.9776 12.3199 37.0326L11.7574 38.2817C11.7326 38.3367 11.6938 38.3772 11.6409 38.403C11.588 38.4286 11.5238 38.4243 11.4485 38.3901L7.08858 36.4113L6.50753 37.7016C6.47342 37.7774 6.42794 37.8232 6.37138 37.8387C6.31483 37.8546 6.25901 37.85 6.20408 37.8251L5.30954 37.419C5.25475 37.3941 5.21267 37.3544 5.18358 37.2997C5.15449 37.2452 5.157 37.1799 5.19111 37.1042L7.10173 32.8614C7.13584 32.7858 7.18294 32.7407 7.24304 32.7265C7.30299 32.7122 7.36058 32.7177 7.41536 32.7426L8.30991 33.1487C8.36484 33.1736 8.40515 33.2126 8.4307 33.2656C8.45639 33.3187 8.45211 33.3832 8.418 33.4588L7.84152 34.7389L7.84167 34.7391ZM13.8747 28.6559C14.0267 28.7538 14.0601 28.8694 13.9749 29.003L12.0321 32.0454L12.0511 32.0577C12.1825 32.1422 12.3209 32.2089 12.468 32.2587C12.6131 32.3075 12.7571 32.3237 12.9008 32.3086C13.0428 32.2924 13.1829 32.2411 13.3175 32.1529C13.4536 32.0656 13.5827 31.9264 13.7045 31.7356C13.8018 31.5832 13.9024 31.4189 14.0056 31.2433C14.1089 31.0674 14.2111 30.8932 14.3124 30.7207C14.4137 30.548 14.5062 30.3855 14.5902 30.2333C14.674 30.0807 14.7401 29.9528 14.7883 29.8491L14.8066 29.8207C14.8837 29.6999 14.9731 29.672 15.0744 29.7372L15.8028 30.2061C15.8788 30.255 15.9277 30.3044 15.9494 30.3542C15.9727 30.4052 15.9667 30.4777 15.933 30.5724C15.814 30.9266 15.6819 31.2633 15.533 31.5801C15.3843 31.8972 15.1779 32.2623 14.914 32.6758C14.7313 32.9617 14.5075 33.2215 14.2423 33.4545C13.9772 33.6878 13.6766 33.8576 13.3405 33.9643C13.0043 34.0709 12.6348 34.0931 12.232 34.0313C11.829 33.9695 11.3996 33.7919 10.9436 33.4984L10.2786 33.0702C9.89862 32.8258 9.58778 32.5495 9.34665 32.2417C9.10522 31.9338 8.94294 31.6072 8.85951 31.2619C8.77608 30.9167 8.77121 30.5569 8.84489 30.1826C8.91858 29.8084 9.07716 29.4305 9.32081 29.0491C9.56844 28.6612 9.85003 28.3602 10.1654 28.1459C10.481 27.9319 10.8127 27.7976 11.1601 27.7432C11.5077 27.6886 11.8649 27.71 12.2318 27.8071C12.5989 27.9042 12.9629 28.0689 13.324 28.3012L13.875 28.6559H13.8747ZM12.1524 29.6738C11.7977 29.4456 11.4845 29.3516 11.213 29.3921C10.9413 29.4327 10.7202 29.5863 10.5497 29.8534C10.3791 30.1206 10.3319 30.3907 10.4076 30.6638C10.4835 30.937 10.6956 31.1854 11.044 31.4097L11.082 31.4342L12.1905 29.6985L12.1524 29.6739V29.6738ZM14.7725 24.1295C14.7278 24.1135 14.7006 24.1113 14.6913 24.1231C14.682 24.1351 14.6906 24.1609 14.7167 24.201L17.7456 27.9592C17.7894 28.013 17.8132 28.0775 17.8168 28.1522C17.8205 28.227 17.7967 28.2973 17.7456 28.3625L16.9645 29.3604C16.9134 29.4256 16.8522 29.4639 16.7812 29.4753C16.7103 29.4864 16.6452 29.4687 16.586 29.422C16.5801 29.4175 16.5726 29.4089 16.563 29.3965C16.5535 29.3842 16.5429 29.3734 16.5309 29.3641L13.2615 25.07C13.1283 24.8977 13.0444 24.7237 13.01 24.5476C12.9756 24.3714 12.9739 24.1996 13.0047 24.0318C13.0356 23.864 13.0929 23.7051 13.1769 23.5551C13.2608 23.4052 13.3539 23.2649 13.4563 23.1342C13.5585 23.0037 13.6722 22.8796 13.7975 22.7622C13.9227 22.645 14.0589 22.5507 14.2057 22.4792C14.3526 22.4078 14.5141 22.3694 14.6903 22.3643C14.8666 22.3593 15.0618 22.403 15.2767 22.4955L20.2374 24.6657L20.2817 24.7007C20.3409 24.7474 20.3722 24.808 20.3758 24.8829C20.3793 24.9579 20.3557 25.028 20.3046 25.0933L19.5235 26.0911C19.4724 26.1565 19.4112 26.1946 19.3402 26.2058C19.2693 26.2173 19.2026 26.2078 19.14 26.1777L14.7725 24.1295ZM23.4958 19.0281C23.8072 19.356 24.0043 19.6786 24.0873 19.9957C24.1704 20.3129 24.1682 20.6227 24.0812 20.9252C23.9943 21.2276 23.8395 21.5245 23.617 21.8157C23.3946 22.1067 23.1363 22.3931 22.8423 22.6745C22.6191 22.8882 22.3744 23.1069 22.1096 23.3288C21.8449 23.5509 21.5686 23.758 21.2807 23.9501C21.1726 24.0223 21.0815 24.0468 21.0103 24.021C20.939 23.9953 20.8515 23.9277 20.7477 23.8185L16.8231 19.6857C16.7608 19.6201 16.7357 19.5582 16.7477 19.4996C16.7598 19.4411 16.7889 19.3896 16.8324 19.348L17.8181 18.4045C17.8617 18.3629 17.9129 18.3374 17.9689 18.3309C18.025 18.3242 18.084 18.3535 18.1464 18.4192L19.439 19.7803C19.4936 19.7175 19.5483 19.66 19.6028 19.608C19.6571 19.5558 19.7142 19.5011 19.7742 19.4437C20.0683 19.1624 20.3654 18.917 20.6658 18.7078C20.9661 18.4987 21.27 18.359 21.5776 18.2889C21.8853 18.2189 22.1938 18.2315 22.5027 18.3271C22.8118 18.4226 23.122 18.6345 23.4334 18.9625L23.4959 19.0282L23.4958 19.0281ZM20.7088 20.4275C20.665 20.4692 20.6052 20.5292 20.5288 20.6075C20.4524 20.6859 20.4006 20.7379 20.3734 20.764L21.5259 21.9776C21.5531 21.9515 21.5884 21.9202 21.6318 21.884C21.6752 21.8475 21.7569 21.7721 21.8766 21.6574C22.2143 21.3342 22.4014 21.069 22.4383 20.8614C22.4751 20.654 22.4002 20.452 22.2133 20.2551L22.151 20.1894C21.964 19.9927 21.7626 19.9009 21.5469 19.9146C21.331 19.9281 21.0516 20.099 20.7086 20.4274L20.7088 20.4275ZM28.7422 16.98C28.7933 17.0454 28.8146 17.1031 28.8059 17.153C28.7975 17.2031 28.7675 17.2627 28.7162 17.332C28.6154 17.4596 28.4773 17.6165 28.3025 17.8027C28.1274 17.9886 27.907 18.1866 27.6408 18.3967C27.0137 18.8914 26.3615 19.0939 25.6835 19.0042C25.0058 18.9145 24.3811 18.5044 23.8094 17.7742L23.2236 17.0258C22.6517 16.2953 22.4026 15.589 22.4761 14.9067C22.5495 14.2243 22.8998 13.6359 23.5269 13.141C23.7931 12.9311 24.0368 12.7627 24.2583 12.6361C24.4796 12.5095 24.6642 12.412 24.8116 12.3436C24.8906 12.3101 24.9554 12.295 25.0059 12.2986C25.0564 12.3018 25.1072 12.3362 25.1583 12.4016L25.7789 13.1944C25.8161 13.242 25.8288 13.2918 25.8173 13.3441C25.8058 13.3966 25.7763 13.4414 25.7289 13.4788L25.711 13.4928C25.5316 13.6058 25.3618 13.7156 25.2016 13.8228C25.0413 13.93 24.834 14.0839 24.5797 14.2846C24.4792 14.3639 24.3974 14.455 24.3342 14.5575C24.271 14.6603 24.2382 14.7774 24.236 14.9089C24.2336 15.0404 24.2655 15.1882 24.3317 15.352C24.398 15.5161 24.5077 15.6961 24.661 15.8921L25.2467 16.6404C25.4002 16.8362 25.5484 16.986 25.6915 17.0893C25.8344 17.1925 25.97 17.2586 26.0979 17.2873C26.2256 17.3163 26.3467 17.3121 26.461 17.2746C26.5753 17.2372 26.6826 17.179 26.7832 17.0997C27.0376 16.8989 27.2356 16.7332 27.3772 16.6022C27.5188 16.4714 27.6653 16.3316 27.817 16.1832L27.8347 16.1691C27.8821 16.1318 27.9326 16.1137 27.9859 16.1147C28.0394 16.1159 28.0847 16.1401 28.1219 16.1877L28.7425 16.9805L28.7422 16.98ZM29.7376 10.7271L32.3201 14.771C32.3647 14.8408 32.3767 14.9052 32.3558 14.9634C32.335 15.0217 32.2993 15.0671 32.2485 15.0997L31.0991 15.8397C31.0484 15.8722 30.9939 15.8849 30.9356 15.8777C30.8773 15.8703 30.8258 15.8316 30.7812 15.7616L28.1987 11.7177L27.0113 12.4821C26.9416 12.527 26.8787 12.5406 26.8228 12.5227C26.7668 12.5051 26.7225 12.4707 26.69 12.4198L26.16 11.5899C26.1277 11.5391 26.114 11.4828 26.1193 11.4211C26.1245 11.3594 26.162 11.3061 26.2317 11.2613L30.136 8.74806C30.2057 8.70329 30.2697 8.69143 30.3277 8.71233C30.3857 8.73324 30.4311 8.76926 30.4635 8.81996L30.9934 9.64984C31.026 9.70069 31.0385 9.7554 31.0312 9.81395C31.0239 9.87251 30.9854 9.92425 30.9157 9.96902L29.7378 10.7273L29.7376 10.7271ZM38.401 9.46216C38.5828 9.8184 38.6625 10.1487 38.6402 10.4529C38.618 10.7571 38.5206 11.0385 38.3482 11.2969C38.1755 11.5553 37.9433 11.7957 37.6509 12.0181C37.3587 12.2404 37.0317 12.4447 36.6701 12.6306C36.3956 12.7719 36.1009 12.9107 35.7858 13.0472C35.4709 13.1837 35.149 13.3025 34.8202 13.4036C34.6962 13.442 34.6036 13.4387 34.5426 13.3937C34.4815 13.3487 34.4168 13.259 34.3483 13.1246L31.812 8.15315C31.7538 8.039 31.7461 7.94531 31.7891 7.87222C31.8321 7.79914 31.8971 7.73198 31.984 7.67016C32.2012 7.51614 32.4611 7.34624 32.764 7.16094C33.0665 6.97563 33.3753 6.80203 33.6901 6.64015C34.0584 6.45084 34.4128 6.30037 34.7532 6.18903C35.0937 6.07755 35.4095 6.02967 35.7007 6.04538C35.9921 6.06125 36.2577 6.14723 36.4981 6.30378C36.7385 6.46018 36.9463 6.70982 37.1211 7.05272L37.1726 7.15352C37.4298 7.65771 37.4008 8.13951 37.0856 8.59833C37.351 8.55519 37.5929 8.60263 37.8113 8.7408C38.0297 8.87881 38.2142 9.09585 38.3651 9.3916L38.4012 9.46231L38.401 9.46216ZM36.7676 10.162C36.6784 9.98725 36.5536 9.87103 36.3933 9.81351C36.2329 9.75584 36.0121 9.79943 35.7308 9.94411L34.9475 10.3469L35.5854 11.5972C35.6188 11.5802 35.6697 11.5558 35.7385 11.5249C35.807 11.4937 35.9386 11.4282 36.1329 11.3284C36.5078 11.1356 36.7382 10.9535 36.824 10.7821C36.9099 10.6105 36.9048 10.4308 36.8088 10.2425L36.7676 10.1619V10.162ZM35.5801 7.90869C35.4807 7.7136 35.3383 7.61294 35.1532 7.60627C34.968 7.5996 34.688 7.6927 34.313 7.88556C34.2461 7.91996 34.1606 7.96384 34.0569 8.01721C33.9531 8.07058 33.876 8.11446 33.826 8.1487L34.4125 9.29806L35.1959 8.89527C35.4771 8.75058 35.638 8.60219 35.6787 8.44979C35.7193 8.29739 35.7001 8.14381 35.6213 7.98919L35.5801 7.90854V7.90869ZM44.5751 6.1831C44.7198 6.61242 44.7912 7.01862 44.7894 7.40198C44.7875 7.78535 44.7148 8.13491 44.5692 8.45157C44.4255 8.76748 44.2103 9.04782 43.9217 9.29346C43.635 9.53836 43.2742 9.73464 42.8376 9.88304C42.4029 10.0307 41.9957 10.0952 41.6199 10.0753C41.2421 10.056 40.8998 9.96516 40.5909 9.80298C40.282 9.64065 40.0092 9.4085 39.7758 9.10504C39.5425 8.80143 39.3535 8.43511 39.2089 8.00579L38.9557 7.25448C38.8109 6.82531 38.7395 6.41882 38.7414 6.03575C38.7433 5.65223 38.8197 5.30148 38.9669 4.98424C39.1141 4.66714 39.3312 4.38591 39.6198 4.14057C39.9065 3.89551 40.269 3.69864 40.7037 3.55099C41.1403 3.40274 41.5457 3.3387 41.9216 3.35857C42.2993 3.37769 42.64 3.46931 42.9452 3.63282C43.2524 3.7956 43.5215 4.02908 43.7549 4.33269C43.9883 4.63601 44.1772 5.00247 44.3219 5.43179L44.5751 6.1831ZM42.5902 6.02003C42.2961 5.14716 41.8336 4.81805 41.2031 5.03212C40.8912 5.13797 40.6911 5.32757 40.6008 5.60153C40.5122 5.87475 40.5405 6.22995 40.6876 6.66639L40.9407 7.4177C41.0879 7.85414 41.2808 8.15552 41.5176 8.32215C41.7562 8.48833 42.0306 8.51858 42.3423 8.41273C42.973 8.19851 43.1401 7.65133 42.8436 6.77149L42.5904 6.02018L42.5902 6.02003ZM54.1192 6.95547L50.7201 7.56506L50.9205 8.69143C50.9311 8.75103 50.9182 8.80692 50.8815 8.85954C50.8451 8.91217 50.7972 8.94375 50.738 8.95442L49.4604 9.18346C49.4012 9.19413 49.3454 9.18109 49.293 9.14447C49.2406 9.10771 49.2092 9.05982 49.1986 9.00023L48.7701 6.59123C48.7595 6.53163 48.7723 6.47574 48.8089 6.42311C48.8454 6.37049 48.8931 6.33891 48.9525 6.32824L49.519 6.22669L49.8331 2.06378C49.8479 1.84631 49.9008 1.66026 49.9919 1.50593C50.0824 1.34968 50.195 1.22011 50.3293 1.11545C50.4635 1.01079 50.6118 0.93044 50.7736 0.874551C50.9356 0.818811 51.0982 0.776264 51.261 0.74706C51.424 0.717707 51.5912 0.701251 51.7623 0.697249C51.9336 0.693394 52.0978 0.714001 52.2548 0.758771C52.4119 0.803393 52.5577 0.882705 52.6931 0.998485C52.8279 1.11234 52.9448 1.27556 53.0439 1.48814L54.7849 5.28236L55.3515 5.18081C55.4108 5.17014 55.4665 5.18318 55.5189 5.2198C55.5713 5.25656 55.6029 5.30445 55.6134 5.36404L56.0421 7.77305C56.0527 7.83249 56.0397 7.88853 56.0031 7.94116C55.9666 7.99378 55.9188 8.02536 55.8596 8.03603L54.5821 8.26508C54.5228 8.27575 54.4671 8.2627 54.4147 8.22609C54.3621 8.18932 54.3307 8.14144 54.3202 8.08184L54.1196 6.95547H54.1192ZM51.3295 5.90188L52.9626 5.60909L51.5857 2.38029C51.563 2.33848 51.5444 2.31877 51.5295 2.32144C51.5073 2.32544 51.4964 2.35049 51.497 2.3963L51.3295 5.90173V5.90188ZM61.8801 3.56656C61.8847 3.74771 61.808 3.84037 61.65 3.84437L58.0515 3.93569L58.0521 3.95837C58.0559 4.11507 58.0785 4.26746 58.12 4.41764C58.1612 4.56574 58.2287 4.69441 58.3217 4.80545C58.4146 4.91441 58.5355 5.00217 58.6838 5.06444C58.8322 5.12863 59.0191 5.15783 59.2449 5.1522C59.4252 5.1476 59.617 5.13901 59.8199 5.12626C60.0228 5.11351 60.2237 5.10091 60.4229 5.0883C60.622 5.0757 60.8079 5.06147 60.9805 5.04576C61.1533 5.0299 61.2959 5.01314 61.4085 4.99521L61.4423 4.99432C61.5851 4.99061 61.6582 5.04932 61.6611 5.17014L61.683 6.03856C61.6853 6.12914 61.6719 6.19748 61.6429 6.24344C61.614 6.29147 61.551 6.32705 61.4538 6.35225C61.0951 6.45187 60.7434 6.53089 60.3986 6.58485C60.0536 6.63896 59.6368 6.67232 59.148 6.68477C58.8097 6.69322 58.47 6.6529 58.129 6.56321C57.788 6.47367 57.4794 6.31905 57.2029 6.09934C56.9264 5.87964 56.7008 5.58508 56.526 5.21565C56.351 4.84607 56.2566 4.38947 56.2429 3.84585L56.223 3.05303C56.2116 2.59999 56.265 2.18683 56.3836 1.81384C56.5022 1.44041 56.6806 1.12242 56.9185 0.85943C57.1565 0.59659 57.4503 0.390675 57.8004 0.241984C58.1503 0.0932933 58.5509 0.0132402 59.002 0.00182528C59.4608 -0.00988618 59.867 0.0553422 60.2204 0.19751C60.5739 0.33953 60.8707 0.539959 61.1105 0.798353C61.3503 1.0566 61.5331 1.36554 61.6587 1.72504C61.7846 2.08454 61.8528 2.47947 61.8637 2.90968L61.8802 3.5667L61.8801 3.56656ZM60.0748 2.70569C60.0641 2.28289 59.9659 1.9698 59.7802 1.76685C59.5944 1.56375 59.3437 1.4662 59.0278 1.47421C58.7118 1.48221 58.4626 1.59444 58.2799 1.81058C58.0971 2.02672 58.0112 2.34249 58.0216 2.75787L58.0227 2.80324L60.0758 2.75105L60.0746 2.70569H60.0748ZM68.9204 4.12722C68.8531 5.01596 68.5672 5.70219 68.0628 6.18636C67.5583 6.67054 66.8298 6.8763 65.877 6.80351C65.7645 6.79492 65.6244 6.77668 65.4568 6.74881C65.289 6.72079 65.1237 6.68922 64.9604 6.65408L64.8122 8.60841C64.8077 8.6686 64.7812 8.7196 64.7327 8.7614C64.6844 8.80306 64.6302 8.82159 64.5701 8.817L63.2086 8.71308C63.1487 8.70863 63.096 8.6818 63.0505 8.63302C63.0051 8.58395 62.9849 8.5294 62.9895 8.46921L63.5891 0.550188C63.5961 0.459906 63.6218 0.39364 63.6664 0.351687C63.7111 0.309585 63.8099 0.275488 63.9629 0.249248C64.2917 0.191136 64.6683 0.149775 65.0925 0.125314C65.5169 0.100854 65.9467 0.105301 66.3816 0.138508C67.2968 0.208332 67.9771 0.514165 68.4228 1.05571C68.8686 1.5971 69.0565 2.32722 68.987 3.24605L68.9202 4.12737L68.9204 4.12722ZM67.1638 3.11426C67.1791 2.91086 67.1781 2.72526 67.1605 2.55922C67.143 2.39126 67.1015 2.24212 67.0359 2.11226C66.9702 1.98417 66.8761 1.8804 66.7537 1.80272C66.6313 1.72534 66.4687 1.67894 66.2663 1.66337C66.0788 1.64914 65.9038 1.64143 65.7418 1.64039C65.5795 1.63935 65.4454 1.64247 65.3392 1.64943L65.0732 5.16258C65.2071 5.18793 65.3596 5.21476 65.5311 5.24293C65.7025 5.27124 65.8558 5.29051 65.9909 5.30089C66.1933 5.31631 66.3611 5.29318 66.4941 5.23136C66.627 5.16954 66.7357 5.07941 66.82 4.96274C66.9045 4.84414 66.968 4.70123 67.0109 4.53401C67.0536 4.36872 67.0824 4.18726 67.0973 3.99143L67.1638 3.11396V3.11426ZM75.7714 5.30638C75.7396 5.48486 75.646 5.56002 75.4905 5.53215L71.9469 4.89662L71.9429 4.91901C71.9154 5.07318 71.907 5.22721 71.9177 5.38257C71.9284 5.53586 71.9687 5.67551 72.0377 5.80315C72.107 5.92857 72.2078 6.03886 72.3407 6.12973C72.4732 6.22254 72.6505 6.28895 72.8729 6.32868C73.0505 6.36055 73.2401 6.3908 73.4412 6.41926C73.6427 6.44772 73.842 6.47574 74.0396 6.50346C74.2372 6.53119 74.4222 6.55476 74.5945 6.57418C74.7668 6.5936 74.9099 6.60575 75.0238 6.61079L75.057 6.61687C75.1977 6.64207 75.2575 6.71427 75.2364 6.83316L75.0841 7.6884C75.0683 7.77749 75.0416 7.84183 75.004 7.88097C74.966 7.92233 74.8972 7.94442 74.7969 7.94946C74.4256 7.97481 74.0653 7.98133 73.7166 7.96473C73.368 7.94827 72.9529 7.89698 72.4717 7.81055C72.1384 7.75081 71.8137 7.64274 71.4976 7.48619C71.1816 7.32979 70.91 7.11617 70.683 6.84532C70.4561 6.57433 70.2939 6.24033 70.1965 5.84303C70.099 5.44573 70.0978 4.97949 70.1931 4.44417L70.332 3.66336C70.4115 3.21729 70.5465 2.82325 70.7372 2.48184C70.928 2.13998 71.1662 1.86439 71.4519 1.65462C71.7376 1.445 72.0668 1.30254 72.4393 1.22753C72.8119 1.15222 73.2203 1.15459 73.6645 1.23435C74.1164 1.31529 74.5013 1.46101 74.8191 1.67152C75.1369 1.88189 75.3876 2.13805 75.5708 2.43944C75.7542 2.74082 75.8715 3.08031 75.9227 3.45774C75.9741 3.83533 75.962 4.23589 75.8867 4.65958L75.7715 5.30652L75.7714 5.30638ZM74.1748 4.0995C74.249 3.68308 74.2154 3.35664 74.074 3.12033C73.9327 2.88403 73.7065 2.73786 73.3953 2.68212C73.0843 2.62623 72.8177 2.68597 72.5954 2.8609C72.3732 3.03583 72.2258 3.32788 72.153 3.73689L72.1451 3.78151L74.1669 4.14412L74.1747 4.0995H74.1748ZM82.0017 8.43437C81.874 8.81359 81.6937 9.10104 81.4608 9.29717C81.228 9.49315 80.9592 9.61916 80.6544 9.67505C80.3495 9.73094 80.016 9.73123 79.6533 9.67594C79.2908 9.62049 78.917 9.52754 78.5322 9.39679C78.24 9.29746 77.9355 9.18213 77.6183 9.05048C77.3015 8.91884 76.9922 8.77 76.6909 8.60382C76.5769 8.54111 76.5147 8.47218 76.5044 8.39701C76.494 8.32156 76.5129 8.2126 76.5612 8.06939L78.3443 2.77863C78.3852 2.65706 78.4467 2.5862 78.529 2.56619C78.6111 2.54618 78.7044 2.54618 78.8091 2.56575C79.0705 2.61467 79.373 2.68345 79.7165 2.77225C80.0597 2.86105 80.3988 2.9623 80.7339 3.07601C81.1258 3.20913 81.4803 3.35946 81.7971 3.52683C82.1141 3.69434 82.3684 3.8884 82.5602 4.10899C82.7519 4.32958 82.8756 4.58086 82.9314 4.86312C82.9872 5.14508 82.9537 5.4687 82.8307 5.83354L82.7945 5.94087C82.6136 6.47752 82.2494 6.7924 81.7018 6.88549C81.9177 7.04634 82.0524 7.25359 82.106 7.50709C82.1594 7.76044 82.1331 8.04463 82.0271 8.35951L82.0017 8.43467V8.43437ZM80.3634 7.74621C80.426 7.56016 80.422 7.38924 80.3513 7.23373C80.2807 7.07822 80.0957 6.94954 79.7964 6.84784L78.9627 6.56469L78.5141 7.89535C78.5497 7.90751 78.6025 7.92722 78.6727 7.95509C78.7427 7.98281 78.881 8.03188 79.0877 8.10215C79.4869 8.23765 79.7775 8.27664 79.9597 8.21897C80.1421 8.16115 80.267 8.03218 80.3345 7.83175L80.3634 7.74607V7.74621ZM81.1451 5.32061C81.2151 5.11306 81.1878 4.9405 81.0636 4.80249C80.9393 4.66462 80.6776 4.52793 80.2785 4.39229C80.2072 4.36812 80.1164 4.33714 80.0059 4.29978C79.8955 4.26213 79.8104 4.23737 79.751 4.22521L79.3388 5.44839L80.1726 5.73169C80.4719 5.83339 80.69 5.8457 80.8272 5.76876C80.9644 5.69167 81.0608 5.57085 81.1162 5.40629L81.1451 5.32046V5.32061ZM84.4256 8.67735C84.1998 8.40887 84.048 8.09978 83.9704 7.74947C83.8927 7.39932 83.9454 7.02099 84.1284 6.61509L84.1702 6.52214C84.3344 6.15746 84.539 5.88157 84.7844 5.69434C85.0297 5.5074 85.302 5.39265 85.6019 5.35055C85.9015 5.3083 86.2237 5.32609 86.5687 5.40392C86.9135 5.4816 87.271 5.6045 87.6411 5.77261C87.9496 5.91255 88.269 6.06984 88.599 6.24448C88.9291 6.41926 89.2375 6.60071 89.5243 6.78884C89.6347 6.85555 89.6891 6.91336 89.6876 6.96243C89.6861 7.0115 89.6699 7.07051 89.639 7.13929L87.1984 12.5592C87.1705 12.621 87.1242 12.6643 87.0595 12.6887C86.9948 12.7132 86.935 12.7131 86.8802 12.6883L85.6565 12.1328C85.6016 12.1079 85.5638 12.0637 85.5428 12.0003C85.5217 11.937 85.5237 11.8777 85.5485 11.8227L86.3993 9.93344L86.1629 9.82626L85.8749 9.6955L83.9268 11.1612C83.8807 11.19 83.8354 11.213 83.7907 11.2299C83.7458 11.2468 83.6892 11.2398 83.6206 11.2087L82.3558 10.6346C82.2737 10.5973 82.2213 10.5487 82.1987 10.4886C82.1761 10.4287 82.1773 10.3712 82.2021 10.3161C82.2238 10.268 82.2641 10.2242 82.3232 10.1846L84.4261 8.67735H84.4256ZM85.7447 7.39858C85.6269 7.66008 85.6106 7.87044 85.696 8.02921C85.7813 8.18814 86.0157 8.35476 86.3997 8.5291C86.4682 8.56009 86.5539 8.59907 86.6568 8.64577C86.7597 8.69247 86.8504 8.72938 86.9288 8.75666L87.5517 7.37337L87.0275 7.13544C86.7188 6.99535 86.4619 6.92863 86.2568 6.93486C86.0517 6.94138 85.8949 7.06502 85.7865 7.30577L85.7447 7.39872V7.39858ZM93.1295 16.3245C93.0847 16.3945 93.0334 16.4332 92.975 16.4406C92.9167 16.4478 92.8622 16.4351 92.8116 16.4026L91.6812 15.6749C91.6304 15.6423 91.5947 15.5969 91.5739 15.5385C91.553 15.4802 91.5648 15.416 91.6096 15.3462L92.8824 13.3529L91.2295 12.2889L89.9566 14.2821C89.912 14.3521 89.8605 14.3908 89.802 14.398C89.7439 14.4054 89.6878 14.3917 89.6371 14.3592L88.4908 13.6212C88.4401 13.5886 88.4028 13.5422 88.3818 13.4838C88.361 13.4255 88.3731 13.3613 88.4177 13.2915L91.652 8.22712C91.7005 8.15078 91.7546 8.11164 91.8141 8.10942C91.8736 8.10734 91.9302 8.1235 91.9808 8.15611L93.1271 8.89408C93.1778 8.9267 93.2145 8.97058 93.2343 9.02365C93.254 9.07672 93.2395 9.14136 93.1908 9.21771L92.052 11.0011L93.7048 12.0652L94.8437 10.2817C94.8924 10.2055 94.9465 10.1663 95.006 10.1641C95.0654 10.162 95.1204 10.1772 95.1712 10.2098L96.3016 10.9375C96.3522 10.9701 96.3874 11.013 96.4072 11.066C96.427 11.1193 96.4123 11.1837 96.3636 11.2601L93.1295 16.3245ZM98.6221 20.5689C98.571 20.6343 98.5161 20.6678 98.4573 20.6696C98.3986 20.6712 98.3454 20.6533 98.2981 20.6161L97.2424 19.7829C97.195 19.7456 97.1637 19.6969 97.1484 19.6369C97.1334 19.5769 97.1513 19.5142 97.2023 19.4488L98.6596 17.5872L97.116 16.3693L95.6587 18.2308C95.6076 18.2962 95.5525 18.3297 95.4937 18.3313C95.4351 18.3331 95.3806 18.314 95.3334 18.2767L94.2625 17.4319C94.2153 17.3945 94.1825 17.3449 94.1673 17.2847C94.1521 17.2246 94.1701 17.1619 94.2212 17.0967L97.9238 12.3668C97.9796 12.2954 98.0371 12.2616 98.0966 12.2652C98.1559 12.2689 98.2109 12.2906 98.2581 12.3278L99.3288 13.1726C99.3761 13.21 99.4086 13.2573 99.423 13.3118C99.4377 13.3667 99.417 13.4297 99.3613 13.5008L98.0575 15.1665L99.6011 16.3845L100.905 14.7188C100.961 14.6477 101.018 14.6139 101.078 14.6174C101.137 14.621 101.19 14.6414 101.238 14.6788L102.294 15.5119C102.341 15.5493 102.372 15.5954 102.387 15.6501C102.401 15.705 102.38 15.7678 102.325 15.839L98.6221 20.5689Z" fill="#EB3349"/>
<path d="M105.108 27.3577C105.065 27.3993 105.011 27.4195 104.947 27.4179C104.883 27.4162 104.829 27.3924 104.788 27.3486L103.84 26.3509C103.799 26.3072 103.777 26.2519 103.779 26.1877C103.78 26.1237 103.803 26.0708 103.846 26.0291L108.2 21.8623C108.243 21.8207 108.297 21.8007 108.361 21.8022C108.425 21.8036 108.479 21.8277 108.52 21.8714L109.468 22.8691C109.509 22.9128 109.53 22.9681 109.529 23.0322C109.528 23.0963 109.505 23.1491 109.461 23.1909L105.108 27.3577ZM104.657 24.1575C104.33 24.4701 104.009 24.6681 103.693 24.7514C103.377 24.8348 103.069 24.8326 102.767 24.7453C102.466 24.658 102.17 24.5026 101.88 24.2792C101.591 24.0559 101.305 23.7967 101.025 23.5015C100.812 23.2774 100.594 23.0317 100.373 22.7659C100.152 22.5001 99.9458 22.2227 99.7544 21.9337C99.6825 21.8251 99.6581 21.7337 99.6838 21.6622C99.7094 21.5906 99.7767 21.5028 99.8855 21.3986L104.002 17.4585C104.067 17.396 104.129 17.3708 104.187 17.3828C104.246 17.3949 104.297 17.4241 104.338 17.4679L105.278 18.4574C105.32 18.5012 105.345 18.5526 105.352 18.6088C105.358 18.6651 105.329 18.7246 105.264 18.787L103.908 20.0847C103.97 20.1396 104.028 20.1944 104.079 20.2491C104.131 20.3037 104.186 20.3611 104.243 20.4214C104.523 20.7166 104.768 21.015 104.976 21.3164C105.184 21.6179 105.324 21.9231 105.393 22.2319C105.463 22.5407 105.451 22.8504 105.355 23.1605C105.26 23.4708 105.049 23.7823 104.722 24.0949L104.657 24.1576L104.657 24.1575ZM103.263 21.3595C103.222 21.3158 103.162 21.2556 103.084 21.1788C103.006 21.1021 102.954 21.0503 102.928 21.0228L101.719 22.1799C101.745 22.2072 101.776 22.2426 101.812 22.2862C101.849 22.3298 101.924 22.4117 102.038 22.532C102.36 22.871 102.624 23.059 102.831 23.0959C103.038 23.133 103.239 23.0577 103.435 22.87L103.5 22.8074C103.696 22.6197 103.788 22.4177 103.774 22.2009C103.761 21.9842 103.59 21.7037 103.263 21.3593L103.263 21.3595ZM109.031 33.5734C108.999 33.5938 108.961 33.6005 108.916 33.5932C108.872 33.5861 108.837 33.5637 108.813 33.5255L107.893 32.0853C107.86 32.0346 107.849 31.9815 107.858 31.926C107.867 31.8706 107.893 31.7983 107.934 31.7089L108.804 29.8169L106.755 29.8838C106.657 29.8843 106.583 29.8761 106.532 29.8595C106.481 29.8429 106.439 29.8091 106.407 29.7582L105.591 28.4802C105.546 28.4102 105.562 28.3508 105.638 28.3019C105.669 28.2816 105.699 28.2716 105.726 28.2721L109.433 28.2414L110.81 25.0667C110.827 25.0376 110.842 25.0191 110.855 25.0109C110.893 24.9865 110.935 24.9794 110.982 24.9896C111.029 25 111.064 25.0241 111.089 25.0622L111.996 26.4832C112.029 26.5342 112.039 26.5883 112.026 26.6457C112.014 26.703 111.99 26.7745 111.955 26.8597L111.186 28.5524L112.997 28.4906C113.095 28.4903 113.171 28.4974 113.225 28.5119C113.279 28.5266 113.322 28.5592 113.355 28.6102L114.171 29.8881C114.22 29.9643 114.203 30.0291 114.12 30.0822C114.089 30.1025 114.059 30.1124 114.032 30.112L110.538 30.1403L109.085 33.5114C109.068 33.5404 109.05 33.5611 109.031 33.5732V33.5734ZM112.728 41.542L111.305 38.3831L110.267 38.8545C110.212 38.8794 110.155 38.8806 110.095 38.8579C110.035 38.8352 109.993 38.7965 109.968 38.7414L109.433 37.5542C109.408 37.4991 109.407 37.4417 109.43 37.3817C109.453 37.3216 109.491 37.2794 109.546 37.2545L111.767 36.2464C111.822 36.2215 111.879 36.2201 111.939 36.2428C111.999 36.2655 112.041 36.3042 112.066 36.3594L112.303 36.8859L116.4 36.1703C116.613 36.1314 116.806 36.1371 116.977 36.188C117.151 36.2376 117.303 36.3156 117.437 36.4206C117.571 36.5255 117.685 36.6501 117.779 36.794C117.873 36.938 117.953 37.0858 118.022 37.2371C118.09 37.3885 118.147 37.5471 118.193 37.7128C118.238 37.8786 118.259 38.0433 118.254 38.2071C118.249 38.3711 118.209 38.5323 118.13 38.6925C118.053 38.8517 117.924 39.0055 117.743 39.1541L114.506 41.7794L114.744 42.3058C114.768 42.361 114.769 42.4185 114.747 42.4785C114.724 42.5384 114.686 42.5808 114.631 42.6059L112.41 43.6139C112.355 43.6388 112.298 43.6399 112.238 43.6172C112.178 43.5947 112.136 43.5558 112.111 43.5007L111.576 42.3137C111.552 42.2585 111.55 42.2011 111.573 42.1411C111.596 42.0811 111.634 42.0387 111.689 42.0138L112.728 41.5423V41.542ZM113.061 38.5685L113.744 40.086L116.524 37.9539C116.559 37.9216 116.573 37.8986 116.567 37.8848C116.558 37.8641 116.531 37.8598 116.487 37.8715L113.061 38.5685H113.061ZM117.834 48.2078C117.399 48.3317 116.992 48.3832 116.61 48.3623C116.229 48.3414 115.885 48.2512 115.577 48.0896C115.27 47.9298 115.002 47.7 114.772 47.3987C114.542 47.0989 114.365 46.7274 114.239 46.2824C114.114 45.8391 114.069 45.4277 114.108 45.0519C114.146 44.674 114.253 44.3352 114.43 44.0335C114.607 43.7318 114.851 43.4698 115.165 43.2509C115.478 43.0318 115.852 42.8605 116.286 42.7368L117.046 42.52C117.48 42.3962 117.888 42.3447 118.269 42.3657C118.651 42.3865 118.996 42.4804 119.304 42.6437C119.612 42.8072 119.881 43.0387 120.111 43.3403C120.341 43.6399 120.518 44.0132 120.644 44.4564C120.77 44.9015 120.813 45.3112 120.775 45.687C120.737 46.0649 120.629 46.4019 120.451 46.7C120.274 46.9997 120.029 47.2581 119.715 47.4771C119.402 47.696 119.028 47.8674 118.594 47.9912L117.834 48.2078ZM118.094 46.2257C118.977 45.974 119.327 45.5266 119.146 44.8837C119.056 44.5658 118.877 44.3558 118.609 44.2515C118.342 44.1491 117.987 44.1599 117.545 44.2858L116.785 44.5025C116.344 44.6284 116.035 44.8069 115.857 45.0361C115.68 45.2672 115.636 45.5407 115.726 45.8587C115.908 46.5016 116.444 46.6963 117.334 46.4425L118.094 46.2259L118.094 46.2257ZM116.425 57.1298C116.373 57.1365 116.337 57.1258 116.318 57.0977C116.3 57.0697 116.288 57.0369 116.283 56.9994L116.11 55.6283C116.105 55.5908 116.118 55.557 116.148 55.5264C116.178 55.4959 116.216 55.4778 116.26 55.472L119.865 55.0121C119.91 55.0065 119.93 54.9887 119.927 54.9586C119.923 54.9288 119.901 54.9087 119.862 54.8984L118.341 54.293C118.23 54.2539 118.167 54.1743 118.151 54.0545L117.979 52.6946C117.964 52.5747 118.005 52.4819 118.103 52.4162L119.425 51.448C119.46 51.4207 119.476 51.3958 119.473 51.3734C119.469 51.3433 119.445 51.3312 119.4 51.337L115.795 51.7967C115.751 51.8025 115.71 51.7943 115.673 51.7725C115.636 51.7506 115.615 51.7208 115.61 51.6833L115.437 50.3123C115.432 50.2748 115.435 50.2401 115.446 50.2082C115.458 50.1764 115.489 50.1571 115.542 50.1504L121.542 49.3852C121.631 49.3737 121.706 49.3945 121.766 49.4479C121.826 49.5012 121.861 49.5727 121.873 49.6627L122.046 51.0338C122.068 51.2061 122.006 51.3435 121.86 51.4458L119.565 53.0861C119.495 53.1331 119.461 53.1678 119.464 53.1903C119.468 53.2203 119.509 53.2492 119.589 53.2772L122.219 54.2893C122.387 54.3519 122.481 54.4691 122.503 54.6415L122.676 56.0127C122.688 56.1025 122.669 56.1811 122.621 56.2481C122.572 56.3152 122.504 56.3545 122.414 56.3659L116.425 57.1298ZM119.347 63.874C118.896 63.8856 118.488 63.8335 118.124 63.7182C117.76 63.6027 117.449 63.4294 117.191 63.1959C116.933 62.9645 116.73 62.675 116.582 62.3256C116.434 61.9779 116.354 61.5738 116.343 61.1114C116.331 60.6508 116.39 60.2414 116.521 59.8869C116.651 59.5304 116.839 59.229 117.085 58.9809C117.331 58.733 117.633 58.5403 117.99 58.4064C118.348 58.2725 118.753 58.2 119.204 58.1886L119.994 58.1685C120.445 58.157 120.853 58.2089 121.217 58.3244C121.581 58.4399 121.892 58.6171 122.15 58.8522C122.408 59.0876 122.611 59.3789 122.759 59.7285C122.907 60.0759 122.987 60.4818 122.999 60.9423C123.01 61.4048 122.951 61.8127 122.821 62.1671C122.691 62.5236 122.502 62.8231 122.256 63.0673C122.011 63.3135 121.709 63.5024 121.351 63.6362C120.993 63.7699 120.588 63.8426 120.137 63.854L119.347 63.874ZM120.091 62.0193C121.008 61.996 121.459 61.6502 121.442 60.9819C121.433 60.6516 121.312 60.4034 121.079 60.2356C120.845 60.0697 120.499 59.9916 120.04 60.0032L119.25 60.0233C118.791 60.0349 118.448 60.1305 118.219 60.3083C117.99 60.4879 117.88 60.7419 117.888 61.0722C117.905 61.7405 118.376 62.0629 119.301 62.0393L120.091 62.0193H120.091ZM117.75 70.6151C117.355 70.5645 117.038 70.4443 116.801 70.2541C116.563 70.0639 116.387 69.8243 116.272 69.5355C116.157 69.2468 116.09 68.9185 116.072 68.5507C116.054 68.1829 116.071 67.7968 116.122 67.3922C116.161 67.085 116.213 66.7625 116.279 66.4243C116.344 66.0863 116.428 65.7524 116.53 65.4229C116.569 65.2984 116.624 65.2235 116.695 65.1985C116.767 65.1731 116.877 65.1701 117.026 65.1893L122.546 65.8931C122.672 65.9094 122.754 65.956 122.79 66.0328C122.825 66.1097 122.844 66.2015 122.846 66.3084C122.85 66.5754 122.843 66.8867 122.824 67.2422C122.806 67.5975 122.774 67.9514 122.73 68.3036C122.678 68.7157 122.601 69.0944 122.501 69.4392C122.4 69.7843 122.261 70.0731 122.084 70.3055C121.907 70.538 121.686 70.7097 121.421 70.8205C121.157 70.9314 120.835 70.9627 120.454 70.9141L120.342 70.8999C119.782 70.8285 119.402 70.5325 119.203 70.0123C119.089 70.2566 118.913 70.4302 118.676 70.5334C118.44 70.6363 118.157 70.667 117.829 70.625L117.75 70.6151H117.75ZM118.097 68.8662C118.291 68.891 118.457 68.8532 118.595 68.7527C118.733 68.6523 118.821 68.4447 118.861 68.13L118.972 67.2534L117.584 67.0763C117.579 67.1136 117.571 67.1697 117.557 67.2441C117.544 67.3185 117.524 67.4644 117.496 67.6819C117.443 68.1014 117.463 68.3951 117.555 68.5629C117.648 68.731 117.799 68.8281 118.008 68.8548L118.097 68.8662H118.097ZM120.62 69.1538C120.836 69.1815 121 69.1205 121.11 68.9707C121.22 68.821 121.301 68.5364 121.354 68.1167C121.364 68.0418 121.376 67.9462 121.39 67.8303C121.405 67.714 121.412 67.6255 121.413 67.5646L120.137 67.4018L120.026 68.2786C119.986 68.5933 120.017 68.8103 120.119 68.9301C120.222 69.0497 120.359 69.1206 120.531 69.1424L120.62 69.1538H120.62Z" fill="#EB3349"/>
<path d="M122.423 74.2248C119.231 88.3305 111.307 100.628 100.418 109.345C89.7405 117.892 76.2144 123 61.502 123C46.7897 123 33.2636 117.892 22.5862 109.345C11.6967 100.628 3.77299 88.3303 0.580506 74.2248L0.147705 72.3127H9.97913C9.33487 69.0132 8.99628 65.604 8.99628 62.1152C8.99628 47.5592 14.8733 34.3807 24.3748 24.8416C33.8765 15.3025 47.0032 9.40234 61.5018 9.40234C76.0006 9.40234 89.1273 15.3025 98.6288 24.8416C108.13 34.3808 114.007 47.5593 114.007 62.1152C114.007 65.604 113.669 69.0134 113.024 72.3127H122.856L122.423 74.2248H122.423ZM13.508 73.8249L13.536 73.9415C13.6781 74.5244 13.8303 75.1033 13.9928 75.6779L14.0024 75.7117C14.0542 75.8945 14.1069 76.0767 14.1608 76.2586L14.1726 76.298C14.2247 76.4739 14.2779 76.6491 14.3319 76.8242L14.3517 76.8881C14.4084 77.0707 14.466 77.253 14.5248 77.4346L14.5264 77.4397C16.9607 84.9668 21.14 91.7038 26.5849 97.1702C34.2598 104.875 44.4498 110.056 55.8126 111.365L55.8633 111.37C56.0448 111.391 56.2268 111.411 56.4089 111.429L56.4875 111.437C56.6675 111.456 56.8479 111.473 57.0285 111.489L57.0998 111.496C57.2975 111.513 57.4953 111.53 57.6936 111.545L57.7045 111.546C57.9115 111.562 58.1191 111.576 58.3269 111.589L58.353 111.591C58.5379 111.603 58.7232 111.613 58.9087 111.623L59.0834 111.631C59.2201 111.638 59.3572 111.644 59.4942 111.649L59.7052 111.657C59.8335 111.662 59.9621 111.666 60.0907 111.67L60.3202 111.676C60.4409 111.679 60.5618 111.681 60.6827 111.683L60.9175 111.687C61.1123 111.689 61.3072 111.69 61.5025 111.69C61.6979 111.69 61.8928 111.689 62.0876 111.687L62.3224 111.683C62.4433 111.681 62.5643 111.679 62.6849 111.676L62.9144 111.67C63.043 111.666 63.1714 111.662 63.2999 111.657L63.5109 111.649C63.648 111.644 63.785 111.638 63.9217 111.631L64.0964 111.623C64.2819 111.613 64.4672 111.603 64.6521 111.591L64.6782 111.589C64.886 111.576 65.0936 111.562 65.3006 111.546L65.3115 111.545C65.5098 111.53 65.7077 111.513 65.9053 111.496L65.9766 111.489C66.1572 111.473 66.3376 111.456 66.5176 111.437L66.5962 111.429C66.7784 111.411 66.9602 111.391 67.1418 111.37L67.1925 111.365C78.5555 110.056 88.7453 104.875 96.4202 97.1702C101.865 91.7038 106.044 84.9666 108.479 77.4397L108.48 77.4346C108.539 77.2529 108.597 77.0707 108.653 76.8881L108.673 76.8242C108.727 76.6492 108.78 76.4739 108.832 76.298L108.844 76.2586C108.898 76.0767 108.951 75.8944 109.003 75.7117L109.012 75.6779C109.175 75.1033 109.327 74.5244 109.469 73.9415L109.497 73.8249C110.403 70.0704 110.883 66.149 110.883 62.115C110.883 48.4251 105.356 36.0311 96.4202 27.06C87.4844 18.089 75.1391 12.54 61.503 12.54C47.8669 12.54 35.5216 18.089 26.5858 27.06C17.6501 36.0311 12.1229 48.4251 12.1229 62.115C12.1229 66.149 12.6033 70.0702 13.5089 73.8249H13.508ZM112.312 75.4505C109.924 84.6485 105.123 92.8687 98.6291 99.3886C90.532 107.518 79.802 113.003 67.8342 114.447L67.7016 114.463C67.5671 114.479 67.4323 114.495 67.2975 114.509L67.0733 114.534L66.7165 114.57L66.438 114.597L66.1098 114.627C66.0063 114.636 65.9026 114.644 65.7988 114.653C65.7003 114.661 65.602 114.669 65.5033 114.677C65.3055 114.692 65.1072 114.706 64.9087 114.718C64.8356 114.723 64.7622 114.727 64.6891 114.731C64.555 114.74 64.421 114.747 64.2866 114.754L64.0325 114.767C63.9046 114.773 63.7767 114.779 63.6487 114.784L63.3928 114.794C63.2695 114.798 63.1459 114.802 63.0223 114.805L62.7536 114.813C62.6223 114.816 62.4909 114.818 62.3593 114.82L62.1301 114.824C61.9209 114.827 61.7115 114.828 61.5017 114.828C61.2918 114.828 61.0825 114.826 60.8732 114.824L60.644 114.82C60.5126 114.818 60.3811 114.816 60.2498 114.813L59.981 114.805L59.6105 114.794L59.3546 114.784C59.2266 114.779 59.0986 114.773 58.9709 114.767L58.7167 114.754C58.5824 114.747 58.4483 114.739 58.3142 114.731C58.2411 114.727 58.1677 114.723 58.0946 114.718C57.8962 114.706 57.6979 114.692 57.5 114.677C57.4014 114.669 57.303 114.661 57.2045 114.653L56.8935 114.627L56.5653 114.597L56.2868 114.57C56.1678 114.559 56.0489 114.546 55.93 114.534L55.7059 114.509C55.5711 114.495 55.4362 114.479 55.3017 114.463L55.1691 114.447C43.2012 113.003 32.4715 107.518 24.3742 99.3886C17.8801 92.8687 13.0795 84.6485 10.6912 75.4505H4.08618C7.37878 88.0412 14.6745 99.0075 24.5266 106.894C34.6668 115.011 47.5182 119.862 61.5012 119.862C75.4843 119.862 88.3356 115.011 98.4758 106.894C108.328 99.0075 115.624 88.0412 118.916 75.4505H112.311H112.312Z" fill="#EB3349"/>
<path d="M44.3472 106.179V104.576C44.3472 104.48 44.3829 104.396 44.4548 104.324C44.5266 104.252 44.6103 104.216 44.7058 104.216H45.9254L47.6473 97.7336C47.7549 97.3134 47.9104 96.9832 48.1138 96.7432C48.3171 96.5031 48.5353 96.32 48.7685 96.194C49.0017 96.0678 49.2409 95.9869 49.486 95.9508C49.7311 95.9148 49.9494 95.8967 50.1407 95.8967C50.3321 95.8967 50.5473 95.9148 50.7865 95.9508C51.0257 95.9869 51.2618 96.0678 51.4951 96.194C51.7281 96.32 51.9465 96.5031 52.1497 96.7432C52.353 96.9832 52.5144 97.3134 52.634 97.7336L54.4456 104.216H55.486C55.5817 104.216 55.6654 104.252 55.7372 104.324C55.8088 104.396 55.8447 104.48 55.8447 104.576V106.179H53.477H46.715H44.3475H44.3472ZM48.3649 104.216H52.0239L50.4634 98.2919C50.4155 98.0998 50.3079 98.0038 50.1406 98.0038C49.9731 98.0038 49.8655 98.0998 49.8177 98.2919L48.3649 104.216ZM65.0818 101.839C65.0818 102.488 64.989 103.085 64.8037 103.631C64.6184 104.177 64.3462 104.648 63.9876 105.045C63.6289 105.441 63.1833 105.753 62.6514 105.981C62.1192 106.209 61.5005 106.323 60.7949 106.323C60.0894 106.323 59.4707 106.209 58.9385 105.981C58.4063 105.753 57.961 105.441 57.6023 105.045C57.2436 104.648 56.9715 104.177 56.7862 103.631C56.6007 103.085 56.5081 102.488 56.5081 101.839V100.381C56.5081 99.7324 56.6007 99.1353 56.7862 98.589C56.9715 98.0427 57.2436 97.5715 57.6023 97.1755C57.9611 96.7794 58.4065 96.4672 58.9385 96.239C59.4707 96.0109 60.0894 95.8969 60.7949 95.8969C61.5005 95.8969 62.1192 96.0109 62.6514 96.239C63.1834 96.4672 63.629 96.7794 63.9876 97.1755C64.3462 97.5716 64.6184 98.0429 64.8037 98.589C64.989 99.1353 65.0818 99.7324 65.0818 100.381V101.839ZM62.7141 100.381C62.7141 99.6364 62.5526 99.0453 62.2298 98.607C61.907 98.1689 61.4286 97.9498 60.7949 97.9498C60.1612 97.9498 59.6827 98.1689 59.3601 98.607C59.0372 99.0453 58.8758 99.6365 58.8758 100.381V101.839C58.8758 102.584 59.0372 103.175 59.3601 103.613C59.6829 104.051 60.1613 104.27 60.7949 104.27C61.4287 104.27 61.9071 104.051 62.2298 103.613C62.5526 103.175 62.7141 102.583 62.7141 101.839V100.381ZM77.4757 105.981C77.4757 106.113 77.3802 106.179 77.1888 106.179H75.5207C75.461 106.179 75.4042 106.149 75.3503 106.089C75.2965 106.029 75.2696 105.969 75.2696 105.909V99.5704C75.2696 99.4864 75.2518 99.4444 75.2159 99.4444C75.2159 99.4444 75.1918 99.4684 75.144 99.5165L73.7271 102.11C73.6913 102.182 73.6226 102.239 73.5209 102.281C73.4193 102.323 73.3205 102.344 73.2248 102.344H71.5748C71.4672 102.344 71.3625 102.323 71.2609 102.281C71.1593 102.239 71.0846 102.182 71.0367 102.11L69.6197 99.5165C69.5719 99.4684 69.548 99.4444 69.548 99.4444C69.5121 99.4444 69.4942 99.4864 69.4942 99.5704V105.909C69.4942 105.969 69.4672 106.029 69.4135 106.089C69.3596 106.149 69.3027 106.179 69.2431 106.179H67.5751C67.3837 106.179 67.288 106.113 67.288 105.981V96.5991C67.288 96.4432 67.3537 96.3111 67.4853 96.2032C67.6168 96.0949 67.7663 96.041 67.9337 96.041H69.2968C69.4284 96.041 69.548 96.074 69.6556 96.14C69.7631 96.2061 69.8468 96.2871 69.9067 96.3831L72.1847 100.561C72.2445 100.681 72.3162 100.741 72.4 100.741C72.4598 100.741 72.5194 100.681 72.5794 100.561L74.8572 96.3831C74.917 96.2871 75.0007 96.2061 75.1082 96.14C75.216 96.074 75.3356 96.041 75.4672 96.041H76.8303C76.9976 96.041 77.147 96.0949 77.2786 96.2032C77.4102 96.3111 77.4759 96.4432 77.4759 96.5991V105.981H77.4757Z" fill="#EB3349"/>
<path fill-rule="evenodd" clip-rule="evenodd" d="M99.1364 36.9655C95.9654 32.8731 91.7215 28.7984 87.0565 25.3475C82.5899 22.0433 77.7417 19.313 73.0854 17.689C71.159 17.017 69.2191 16.4748 67.2771 16.0648C65.3515 15.6583 63.4223 15.382 61.5019 15.2388C59.5816 15.382 57.6524 15.6583 55.7268 16.0648C53.7848 16.4748 51.8449 17.0171 49.9185 17.689C45.2622 19.3129 40.414 22.0433 35.9473 25.3475C31.2823 28.7983 27.0385 32.8731 23.8674 36.9655C20.4688 41.3515 18.6524 45.5295 17.8553 49.7244C17.056 53.9309 17.2763 58.1752 17.9519 62.6724C18.4734 66.1449 19.2924 69.2308 20.195 72.6325C21.1218 76.1243 22.1365 79.9476 23.0154 84.8773C23.8445 89.5286 25.9614 93.4442 28.9336 96.6066C32.0574 99.93 36.1288 102.425 40.6486 104.072V102.028C36.2852 100.813 32.1373 97.8471 28.894 93.8606C25.6288 89.847 23.2746 84.7914 22.5383 79.4429C22.1814 76.8489 21.8255 74.6864 21.4909 72.6516C20.9362 69.278 20.4381 66.2508 20.0907 62.2498C19.7169 57.9485 19.9415 52.9043 21.265 47.9136C22.3515 43.8175 24.178 39.7583 27.0196 36.175C30.0943 32.2984 33.572 28.4625 37.3473 25.255C41.1421 22.0307 45.239 19.4399 49.5326 18.0738C51.4719 17.4567 53.4462 17.0062 55.4396 16.7196C57.4442 16.4313 59.4705 16.3097 61.5018 16.3518C63.5331 16.3097 65.5594 16.4313 67.564 16.7196C69.5574 17.0063 71.5317 17.4568 73.4709 18.0738C77.7644 19.4398 81.8613 22.0307 85.6564 25.255C89.4314 28.4625 92.9095 32.2984 95.984 36.175C98.8258 39.7581 100.652 43.8175 101.739 47.9136C103.062 52.9043 103.287 57.9485 102.913 62.2498C102.565 66.2508 102.067 69.278 101.513 72.6516C101.178 74.6864 100.822 76.8489 100.465 79.4429C99.729 84.7914 97.3747 89.8468 94.1095 93.8606C90.8663 97.8471 86.7184 100.813 82.3549 102.028V104.072C86.8748 102.425 90.9461 99.93 94.07 96.6066C97.0423 93.4442 99.1592 89.5286 99.9882 84.8773C100.867 79.9476 101.882 76.1244 102.809 72.6325C103.711 69.231 104.53 66.1451 105.052 62.6724C105.727 58.1751 105.948 53.9308 105.148 49.7244C104.351 45.5296 102.535 41.3515 99.1361 36.9655H99.1364Z" fill="#EB3349"/>
<path fill-rule="evenodd" clip-rule="evenodd" d="M89.8711 42.5936C87.4794 39.5066 84.2779 36.4329 80.7587 33.8297C79.2949 32.7469 77.7769 31.7458 76.2405 30.8594C77.478 31.6638 78.683 32.5763 79.8499 33.568C82.7121 35.9996 85.3483 38.907 87.678 41.8446C89.8386 44.569 91.2272 47.6547 92.053 50.7682C93.0581 54.5581 93.2287 58.388 92.9452 61.653C92.682 64.6806 92.3047 66.9742 91.8843 69.5304C91.6315 71.0678 91.3627 72.702 91.0927 74.6636C90.5328 78.7314 88.7424 82.5765 86.2593 85.6286C83.8129 88.6359 80.6882 90.8805 77.3962 91.822V93.1007C80.7322 91.8612 83.7353 90.0041 86.0466 87.545C88.2793 85.1693 89.8693 82.2284 90.492 78.7356C91.1581 74.9998 91.9258 72.1068 92.6271 69.4646C93.3089 66.8959 93.9271 64.5659 94.3209 61.9439C94.8302 58.5541 94.9964 55.3566 94.3949 52.1912C93.7956 49.037 92.4288 45.8943 89.8708 42.5931L89.8711 42.5936ZM69.1393 27.6939C68.046 27.3506 66.9468 27.0621 65.8451 26.8297C64.3973 26.524 62.9463 26.3158 61.5017 26.2078C60.0571 26.3158 58.6062 26.524 57.1584 26.8297C56.0567 27.0621 54.9574 27.3506 53.8641 27.6939C54.8666 27.4339 55.8798 27.231 56.8997 27.0843C58.4204 26.8655 59.9587 26.7733 61.5017 26.8052C63.0448 26.7733 64.583 26.8655 66.1038 27.0843C67.1237 27.231 68.1368 27.4339 69.1393 27.6939ZM46.7632 30.8596C45.2267 31.746 43.7087 32.7469 42.245 33.8298C38.7259 36.4331 35.5242 39.5068 33.1325 42.5937C30.5745 45.8949 29.2078 49.0376 28.6084 52.1918C28.007 55.3571 28.1732 58.5547 28.6824 61.9445C29.0762 64.5665 29.6946 66.8965 30.3762 69.4652C31.0775 72.1073 31.8452 75.0004 32.5113 78.7362C33.134 82.229 34.724 85.1699 36.9567 87.5456C39.2681 90.0047 42.2712 91.8616 45.6071 93.1012V91.8226C42.315 90.881 39.1904 88.6364 36.7441 85.6292C34.261 82.5771 32.4705 78.732 31.9106 74.6642C31.6407 72.7026 31.3718 71.0686 31.119 69.531C30.6986 66.9746 30.3213 64.6811 30.0582 61.6536C29.7745 58.3885 29.9452 54.5587 30.9503 50.7688C31.7761 47.6553 33.1647 44.5696 35.3253 41.8452C37.6553 38.9074 40.2914 36.0002 43.1534 33.5686C44.3204 32.5769 45.5253 31.6644 46.7629 30.86L46.7632 30.8596Z" fill="#EB3349"/>
<path fill-rule="evenodd" clip-rule="evenodd" d="M94.6339 39.7005C91.8416 36.097 88.1042 32.5084 83.9962 29.4696C80.0626 26.5598 75.7938 24.1554 71.6947 22.7259C69.9991 22.1344 68.291 21.6569 66.5814 21.2962C64.888 20.9386 63.1913 20.6955 61.5019 20.5693C59.8127 20.6955 58.116 20.9386 56.4225 21.2962C54.713 21.657 53.0049 22.1345 51.3092 22.7259C47.21 24.1554 42.9412 26.5598 39.0076 29.4696C34.8996 32.5085 31.1623 36.097 28.37 39.7005C25.3798 43.5592 23.7819 47.2343 23.081 50.9234C22.3778 54.6237 22.5718 58.3594 23.1665 62.3186C23.626 65.3777 24.3473 68.0962 25.1426 71.093C25.9598 74.1719 26.8545 77.5432 27.63 81.8928C28.3589 85.9809 30.2198 89.4229 32.8325 92.2028C35.5613 95.1064 39.1138 97.2914 43.0582 98.7404V97.0687C39.2156 95.9862 35.5649 93.3709 32.7089 89.86C29.8239 86.3136 27.7434 81.8462 27.093 77.1203C26.7783 74.8328 26.4647 72.927 26.1698 71.1336C25.6803 68.1576 25.241 65.4872 24.9347 61.9597C24.6047 58.1619 24.8032 53.7079 25.9721 49.3007C26.9319 45.6823 28.5454 42.0959 31.0563 38.9302C33.769 35.5099 36.8376 32.1253 40.1693 29.2948C43.5205 26.4475 47.1393 24.1591 50.9322 22.9524C52.6448 22.4074 54.3885 22.0095 56.1497 21.7565C57.9192 21.502 59.7081 21.3948 61.5022 21.4318C63.2962 21.3948 65.0851 21.502 66.8547 21.7565C68.6158 22.0097 70.3595 22.4076 72.0723 22.9524C75.8654 24.1593 79.4841 26.4476 82.8351 29.2948C86.1669 32.1253 89.2355 35.5097 91.9482 38.9302C94.4591 42.096 96.0726 45.6823 97.0324 49.3007C98.2011 53.7079 98.3996 58.1619 98.0697 61.9597C97.7633 65.4871 97.324 68.1576 96.8347 71.1336C96.5398 72.927 96.2261 74.8328 95.9115 77.1203C95.2609 81.8462 93.1804 86.3136 90.2955 89.86C87.4394 93.3707 83.7889 95.9862 79.9463 97.0687V98.7404C83.8906 97.2914 87.4433 95.1064 90.1719 92.2028C92.7847 89.4228 94.6456 85.9809 95.3744 81.8928C96.1499 77.5432 97.0446 74.1718 97.8618 71.093C98.6571 68.0962 99.3785 65.3777 99.838 62.3186C100.433 58.3596 100.627 54.6237 99.9235 50.9234C99.2225 47.2343 97.6247 43.5592 94.6345 39.7005H94.6339Z" fill="#EB3349"/>
<path fill-rule="evenodd" clip-rule="evenodd" d="M78.7173 23.5789H86.2495C87.676 23.5789 88.8426 24.7497 88.8426 26.1822V45.0094L95.3901 51.7455C97.09 53.5008 97.0521 56.3089 95.3037 58.0156C94.4458 58.8532 93.3343 59.2705 92.2242 59.2705V59.2837H88.8426V88.0122C88.8426 90.2571 87.0145 92.0924 84.7784 92.0924H38.2401C36.0039 92.0924 34.1758 90.2571 34.1758 88.0122V59.2837H30.793C28.3477 59.2837 26.364 57.2922 26.364 54.8372C26.364 53.5126 26.942 52.3231 27.8573 51.5091L42.9856 35.9429L58.3427 20.1378C60.0426 18.3826 62.8398 18.3446 64.5881 20.0512L64.6744 20.1378L76.1243 31.9218V26.1822C76.1243 24.7499 77.2907 23.5789 78.7175 23.5789H78.7173ZM45.8446 75.4793L53.5745 45.7399C53.9134 44.4185 54.4022 43.3799 55.0417 42.6244C55.6809 41.8692 56.3676 41.2936 57.1009 40.8967C57.8345 40.5003 58.587 40.2452 59.3581 40.1322C60.1292 40.0188 60.8155 39.9622 61.4172 39.9622C62.0194 39.9622 62.7057 40.0188 63.4768 40.1322C64.2479 40.2452 65 40.5003 65.7337 40.8967C66.4673 41.2936 67.1536 41.8694 67.7932 42.6244C68.4326 43.3799 68.9216 44.4183 69.2599 45.7399L76.9338 75.4793H81.3345C81.6357 75.4793 81.8987 75.5923 82.1246 75.819C82.3504 76.0458 82.4634 76.3101 82.4634 76.6122V82.5031H74.6202H48.384H40.5413V76.6122C40.5413 76.3101 40.6538 76.0458 40.8796 75.819C41.1055 75.5923 41.3688 75.4793 41.6698 75.4793H45.8449H45.8446ZM53.8003 75.4793H68.978L62.3202 47.4959C62.2447 47.1561 62.1508 46.9201 62.0378 46.788C61.9249 46.6557 61.718 46.5897 61.4171 46.5897C61.1163 46.5897 60.9094 46.6557 60.7964 46.788C60.6835 46.9201 60.5896 47.1561 60.5146 47.4959L53.8002 75.4793H53.8003Z" fill="#EB3349"/>
</g>
<defs>
<clipPath id="clip0_82_493">
<rect width="123" height="123" fill="white"/>
</clipPath>
</defs>
</svg>
