<svg width="36" height="36" viewBox="0 0 36 36" fill="none" xmlns="http://www.w3.org/2000/svg">
<path d="M19.515 4.3801L28.365 8.3101C30.915 9.4351 30.915 11.2951 28.365 12.4201L19.515 16.3501C18.51 16.8001 16.86 16.8001 15.855 16.3501L7.00503 12.4201C4.45503 11.2951 4.45503 9.4351 7.00503 8.3101L15.855 4.3801C16.86 3.9301 18.51 3.9301 19.515 4.3801Z" stroke="#038700" stroke-width="1.5" stroke-linecap="round" stroke-linejoin="round"/>
<path d="M4.5 16.5C4.5 17.76 5.445 19.215 6.6 19.725L16.785 24.255C17.565 24.6 18.45 24.6 19.215 24.255L29.4 19.725C30.555 19.215 31.5 17.76 31.5 16.5" stroke="#038700" stroke-width="1.5" stroke-linecap="round" stroke-linejoin="round"/>
<path d="M4.5 24C4.5 25.395 5.325 26.655 6.6 27.225L16.785 31.755C17.565 32.1 18.45 32.1 19.215 31.755L29.4 27.225C30.675 26.655 31.5 25.395 31.5 24" stroke="#038700" stroke-width="1.5" stroke-linecap="round" stroke-linejoin="round"/>
</svg>
